<svg xmlns="http://www.w3.org/2000/svg" xmlns:xlink="http://www.w3.org/1999/xlink" xml:space="preserve" style="shape-rendering:geometricPrecision;text-rendering:geometricPrecision;image-rendering:optimizeQuality;" viewBox="0 0 6827 6827" x="0px" y="0px" fill-rule="evenodd" clip-rule="evenodd"><defs>

<style type="text/css">
   
    .fil2 {fill:none}
    .fil0 {fill:#30CD9A}
    .fil1 {fill:#30CD9A;fill-rule:nonzero}
   
  </style></defs><g><g>
  <path class="fil0" d="M5525 1465l-2687 2687 0 -9c0,-86 -70,-157 -156,-157 -3,0 -6,0 -9,0l138 -139 2548 -2548 166 166z"/>
  <path class="fil1" d="M2390 3926l423 -1c2,0 5,0 7,0 43,0 78,35 78,78l0 0 -1 423c2,22 -6,45 -23,62l0 0 -662 662c-10,11 -24,18 -39,22 -42,9 -84,-17 -94,-59l0 0 -68 -303 -297 -67c-16,-2 -32,-10 -44,-22 -31,-31 -31,-80 0,-111l0 0 663 -663c14,-14 34,-23 56,-23l0 0z"/>
  <path class="fil1" d="M5137 1050l734 -197c14,-5 29,-5 44,-1 42,11 67,54 55,96l0 0 -197 734c-3,14 -10,28 -21,39 -31,31 -80,31 -111,0l0 0 -539 -539c-10,-10 -18,-22 -22,-36 -11,-42 14,-85 55,-96l0 0z"/>
  <polygon class="fil0" points="1753,1609 5214,5070 5048,5236 1587,1775 "/>
  <path class="fil0" d="M4997 4854l0 0 18 -42c4,-8 8,-16 13,-24 244,-410 326,-874 236,-1343 -88,-460 -333,-886 -663,-1216 -330,-330 -756,-575 -1216,-663 -469,-90 -933,-8 -1343,236 -8,5 -16,9 -24,13l-41 18 0 0c-122,52 -248,98 -376,129 -207,49 -467,67 -627,-101 -68,-71 -104,-163 -115,-259 -5,-44 -6,-93 1,-137 15,-107 114,-181 221,-167 105,15 178,111 168,216 -1,10 3,27 5,36 5,21 15,41 33,54 67,48 220,4 291,-20 95,-32 187,-76 275,-123l1 0c335,-179 697,-293 1077,-310 348,-16 691,48 1012,182 349,145 650,377 916,642 265,265 497,567 642,916 134,321 197,665 182,1012 -17,380 -132,742 -310,1077l0 1c-47,88 -91,181 -123,275 -24,70 -68,223 -20,291 13,18 33,28 54,33 9,2 27,6 36,5 105,-10 202,62 216,168 15,107 -60,205 -167,221 -44,6 -93,6 -137,1 -97,-11 -188,-48 -259,-115 -27,-26 -50,-55 -69,-87 -150,-256 -15,-656 96,-916z"/>
  </g>
  </g>
</svg>